<?xml version="1.0" encoding="UTF-8"?>
<svg width="49px" height="49px" viewBox="0 0 49 49" version="1.1" xmlns="http://www.w3.org/2000/svg" xmlns:xlink="http://www.w3.org/1999/xlink">
    <!-- Generator: Sketch 64 (93537) - https://sketch.com -->
    <title>reset-success</title>
    <desc>Created with Sketch.</desc>
    <g id="Desktop" stroke="none" stroke-width="1" fill="none" fill-rule="evenodd">
        <g id="007---login-(forgot-password---success)" transform="translate(-827.000000, -265.000000)" fill-rule="nonzero">
            <g id="Content" transform="translate(556.000000, 184.000000)">
                <g id="reset-success" transform="translate(271.000000, 81.000000)">
                    <circle id="Oval" fill="#353968" cx="32.375" cy="32.9583333" r="2.04166667"></circle>
                    <path d="M22.9322917,45.171875 L7.70833333,45.171875 C5.58314583,45.171875 3.85416667,43.4545781 3.85416667,41.34375 L3.85416667,25.6484375 C3.85416667,23.5376094 5.58314583,21.8203125 7.70833333,21.8203125 L35.4583333,21.8203125 C37.5835208,21.8203125 39.3125,23.5376094 39.3125,25.6484375 L39.3125,29.4765625 C39.3125,30.5336992 40.1752552,31.390625 41.2395833,31.390625 C42.3039115,31.390625 43.1666667,30.5336992 43.1666667,29.4765625 L43.1666667,25.6484375 C43.1666667,21.4267813 39.7087083,17.9921875 35.4583333,17.9921875 L33.1422682,17.9921875 L33.1422682,11.2418633 C33.1422682,5.04307617 27.9553307,0 21.5797682,0 C15.2042057,0 10.0172682,5.04307617 10.0172682,11.2418633 L10.0172682,17.9921875 L7.70833333,17.9921875 C3.45795833,17.9921875 0,21.4267813 0,25.6484375 L0,41.34375 C0,45.5654063 3.45795833,49 7.70833333,49 L22.9322917,49 C23.9966198,49 24.859375,48.1430742 24.859375,47.0859375 C24.859375,46.0288008 23.9966198,45.171875 22.9322917,45.171875 Z M13.8714349,11.2418633 C13.8714349,7.1539043 17.3293932,3.828125 21.5797682,3.828125 C25.8301432,3.828125 29.2881016,7.1539043 29.2881016,11.2418633 L29.2881016,17.9921875 L13.8714349,17.9921875 L13.8714349,11.2418633 Z" id="Shape" fill="#353968"></path>
                    <path d="M48.1969989,31.2726238 C47.3341375,30.6605538 46.1337974,30.8574707 45.5163837,31.7123319 L36.046138,44.8179187 C35.7875294,45.1150548 35.4634039,45.1792027 35.2897173,45.1906237 C35.1116116,45.2023302 34.7686573,45.1799641 34.4667231,44.8992933 L28.3465741,38.9821732 C27.5870792,38.2478035 26.3706963,38.2627459 25.629646,39.0150085 C24.8884997,39.7673663 24.9032938,40.9724712 25.6627886,41.7067457 L31.793697,47.634335 C31.7994609,47.6398552 31.8051288,47.6453753 31.8109888,47.6508003 C32.7300487,48.5177487 33.9569028,49 35.2192051,49 C35.3276632,49 35.4364095,48.9964785 35.5451558,48.9892452 C36.9202392,48.8984484 38.2041563,48.2359357 39.0674981,47.1716897 C39.0897853,47.144089 39.111304,47.1160124 39.1321503,47.0872696 L48.6408221,33.9283848 C49.258428,33.0736188 49.0597643,31.8845033 48.1969989,31.2726238 Z" id="Path" fill="#51B235"></path>
                    <circle id="Oval" fill="#353968" cx="25.375" cy="32.9583333" r="2.04166667"></circle>
                    <circle id="Oval" fill="#353968" cx="10.7916667" cy="32.9583333" r="2.04166667"></circle>
                    <circle id="Oval" fill="#353968" cx="17.7916667" cy="32.9583333" r="2.04166667"></circle>
                </g>
            </g>
        </g>
    </g>
</svg>